<?xml version="1.0" encoding="UTF-8" standalone="no"?>
<!-- Created with Inkscape (http://www.inkscape.org/) -->

<svg
   version="1.1"
   id="svg1"
   width="481"
   height="481"
   viewBox="0 0 481 481"
   sodipodi:docname="vestra (1).svg"
   inkscape:version="1.4.3 (0d15f75, 2025-12-25)"
   xmlns:inkscape="http://www.inkscape.org/namespaces/inkscape"
   xmlns:sodipodi="http://sodipodi.sourceforge.net/DTD/sodipodi-0.dtd"
   xmlns="http://www.w3.org/2000/svg"
   xmlns:svg="http://www.w3.org/2000/svg">
  <defs
     id="defs1" />
  <sodipodi:namedview
     id="namedview1"
     pagecolor="#ffffff"
     bordercolor="#000000"
     borderopacity="0.25"
     inkscape:showpageshadow="2"
     inkscape:pageopacity="0.0"
     inkscape:pagecheckerboard="0"
     inkscape:deskcolor="#d1d1d1"
     inkscape:zoom="2.7061117"
     inkscape:cx="-27.715043"
     inkscape:cy="219.6879"
     inkscape:window-width="3840"
     inkscape:window-height="2054"
     inkscape:window-x="2869"
     inkscape:window-y="-11"
     inkscape:window-maximized="1"
     inkscape:current-layer="g1" />
  <g
     inkscape:groupmode="layer"
     inkscape:label="Image"
     id="g1">
    <path
       style="fill:#361dff;fill-opacity:1"
       d="m 298.61589,437.31338 c -4.125,-1.79544 -10.54147,-4.70115 -14.25882,-6.45713 -3.71736,-1.75598 -10.91736,-5.0191 -16,-7.25137 -5.08265,-2.23228 -11.37146,-5.21424 -13.97513,-6.62657 -5.62314,-3.05022 -1.96405,5.72932 -36.78758,-88.2675 -24.0598,-64.943 -27.5256,-74 -28.31728,-74 -0.22544,0 -6.65393,2.52009 -14.28554,5.6002 -7.63161,3.08011 -27.37565,10.98026 -43.87565,17.55589 -16.5,6.57562 -32.474996,13.026 -35.499996,14.33416 -12.80611,5.53799 -46.0632,18.53433 -50.38979,19.69151 -5.16035,1.38018 -7.83106,0.52517 -8.46658,-2.71055 -0.63104,-3.21281 5.40136,-20.97793 17.07746,-50.29226 l 4.16645,-10.4604 5.55623,-2.47978 c 3.05592,-1.36387 19.28123,-8.01043 36.05623,-14.77014 16.774996,-6.7597 41.749996,-16.8605 55.499996,-22.44622 43.48806,-17.66632 57.27468,-23.02241 59.25984,-23.02241 3.85326,0 5.03598,2.42299 20.013,41 2.24207,5.775 6.09649,15.675 8.56538,22 5.70523,14.61611 42.21355,108.95708 57.67299,149.03248 14.25891,36.96331 14.58561,37.98382 13.06771,40.82005 -1.63311,3.0515 -6.03469,2.68663 -15.07892,-1.24996 z m 8.57194,-6.35257 c -1.38962,-3.89078 -6.78682,-17.85683 -52.07432,-134.75 -8.09721,-20.9 -18.98499,-49.025 -24.19507,-62.5 -14.18688,-36.69201 -15.25396,-39.38526 -16.18386,-40.84724 -0.94584,-1.48705 0.75161,-2.12212 -59.61869,22.30522 -18.7,7.56648 -45.475,18.36812 -59.499996,24.00363 -37.48511,15.06222 -32.30821,11.00384 -40.23531,31.54209 -8.27034,21.42754 -13.03873,35.05559 -12.46613,35.62819 0.34852,0.34853 70.601286,-27.57667 134.701436,-53.5433 6.875,-2.78502 13.20551,-5.06929 14.0678,-5.07614 2.07459,-0.0165 8.06186,15.17498 34.48067,87.48755 1.80844,4.95 6.72753,18.225 10.9313,29.5 4.20378,11.275 9.6765,25.98722 12.1616,32.69384 2.4851,6.70661 5.08028,12.66018 5.76705,13.23015 1.31156,1.0885 51.57669,23.97441 52.79722,24.03879 0.3881,0.0205 0.10294,-1.65028 -0.6337,-3.71278 z m -42.95476,-160.5 c -1.28868,-2.02918 -3.95085,-8.65301 -16.57867,-41.25 -5.6926,-14.69468 -35.65924,-93.36391 -39.99654,-105 -3.14639,-8.44115 -17.9881,-47.48574 -26.7986,-70.50001 -8.51998,-22.25539 -11.34394,-31.48386 -10.32115,-33.72864 0.73258,-1.60783 1.8889,-2.27136 3.9583,-2.27136 2.76905,0 23.39346,8.84506 47.61948,20.42226 l 11,5.25671 10.4349,27.41052 c 9.34311,24.542586 12.65692,33.31452 19.04382,50.41052 1.02737,2.75 5.32802,14 9.55699,25 13.29389,34.57877 13.54207,36.32487 5.47186,38.49796 l -4.08134,1.09899 0.28689,9.20152 0.28688,9.20153 8.31482,0.29148 c 9.24701,0.32417 6.11773,1.41271 62.68518,-21.80536 11,-4.51495 26.975,-11.05419 35.5,-14.53166 8.525,-3.47747 20,-8.19813 25.5,-10.49035 21.94429,-9.14566 35.6791,-13.95727 38.10397,-13.34866 3.75668,0.94286 3.98807,4.48205 0.86145,13.17603 -6.99962,19.46334 -19.80523,49.90861 -21.77984,51.78143 -2.28856,2.1706 -10.16342,5.73201 -32.68558,14.78208 -13.8028,5.54638 -25.30256,10.23108 -60.5,24.64609 -43.0571,17.63392 -59.47819,23.99892 -61.91492,23.99892 -1.54296,0 -3.09953,-0.88266 -3.9679,-2.25 z m 27.38282,-12.46301 c 10.175,-4.11265 27.05,-10.9819 37.5,-15.26499 41.37805,-16.95942 74.36422,-30.43579 81.5,-33.2965 4.125,-1.65369 8.02969,-3.42132 8.67709,-3.92805 0.89043,-0.69695 12.70609,-29.38856 22.07261,-53.59825 0.90758,-2.34583 -2.35661,-1.1815 -42.2497,15.07041 -25.31078,10.31127 -40.74991,16.65149 -72,29.56746 l -33,13.63923 -11,-0.0309 c -6.05,-0.017 -11.7875,-0.33504 -12.75,-0.70677 -1.54684,-0.59741 -1.75,-2.24269 -1.75,-14.17208 0,-12.31984 0.16859,-13.58643 1.93426,-14.53138 1.06384,-0.56935 2.87796,-1.03518 4.03138,-1.03518 4.58371,0 5.62318,3.30735 -20.42879,-65 -6.39787,-16.775004 -14.58876,-38.37501 -18.20198,-48.00001 -3.61322,-9.625 -7.0792,-18.04411 -7.70218,-18.70913 -0.62298,-0.66503 -8.10769,-4.39508 -16.63269,-8.289 -8.525,-3.89392 -16.4,-7.49939 -17.5,-8.01216 -8.44648,-3.93732 -17.85345,-7.96959 -18.07518,-7.74786 -0.23654,0.23654 5.98141,17.15687 11.48688,31.25815 3.49376,8.94867 7.46341,19.40862 43.26402,114.00001 3.33059,8.8 7.09861,18.7 8.37337,22 1.27476,3.3 7.48988,19.5 13.81137,36 15.75896,41.13312 15.14083,39.78679 17.88369,38.95152 1.24072,-0.37783 10.58085,-4.05187 20.75585,-8.16453 z"
       id="path1" />
  </g>
</svg>
